# AST/ASF file generated using VICON BodyLanguage
# -----------------------------------------------
:version 1.10
:name VICON
:units
  mass 1.0
  length 0.45
  angle deg
:documentation
   .ast/.asf automatically generated from VICON data using
   VICON BodyBuilder and BodyLanguage model FoxedUp or BRILLIANT.MOD
:root
   order TX TY TZ RX RY RZ
   axis XYZ
   position 0 0 0  
   orientation 0 0 0 
:bonedata
  begin
     id 1 
     name lhipjoint
     direction 0.602128 -0.715006 0.355257 
     length 2.21237 
     axis 0 0 0  XYZ
  end
  begin
     id 2 
     name lfemur
     direction 0.34202 -0.939693 0  
     length 6.71649  
     axis 0 0 20  XYZ
    dof rx ry rz
    limits (-160.0 20.0)
           (-70.0 70.0)
           (-60.0 70.0)
  end
  begin
     id 3 
     name ltibia
     direction 0.34202 -0.939693 0   
     length 6.97123   
     axis 0 0 20   XYZ
    dof rx
    limits (-10.0 170.0)
  end
  begin
     id 4 
     name lfoot
     direction 0.0655697 -0.180151 0.981451   
     length 1.80924   
     axis -90 7.62852e-016 20   XYZ
    dof rx rz
    limits (-45.0 90.0)
           (-70.0 20.0)
  end
  begin
     id 5 
     name ltoes
     direction 1.53545e-011 -4.21827e-011 1   
     length 0.916331   
     axis -90 7.62852e-016 20   XYZ
    dof rx
    limits (-90.0 20.0)
  end
  begin
     id 6 
     name rhipjoint
     direction -0.625414 -0.698792 0.347201   
     length 2.2637  
     axis 0 0 0  XYZ 
  end
  begin
     id 7 
     name rfemur
     direction -0.34202 -0.939693 0   
     length 7.07595   
     axis 0 0 -20   XYZ
    dof rx ry rz
    limits (-160.0 20.0)
           (-70.0 70.0)
           (-70.0 60.0)
  end
  begin
     id 8 
     name rtibia
     direction -0.34202 -0.939693 0   
     length 7.22924   
     axis 0 0 -20   XYZ
    dof rx
    limits (-10.0 170.0)
 end
 begin
     id 9 
     name rfoot
     direction -0.0766747 -0.210662 0.974547   
     length 1.98482  
     axis -90 -7.62852e-016 -20   XYZ
    dof rx rz
    limits (-45.0 90.0)
           (-20.0 70.0)
  end
  begin
     id 10 
     name rtoes
     direction -1.53532e-011 -4.21867e-011 1   
     length 0.999842   
     axis -90 -7.62852e-016 -20   XYZ
    dof rx
    limits (-90.0 20.0)
  end
  begin
     id 11 
     name lowerback
     direction -0.0224668 0.997354 -0.0691422   
     length 2.09945   
     axis 0 0 0   XYZ
    dof rx ry rz
    limits (-20.0 45.0)
           (-30.0 30.0)
           (-30.0 30.0)
  end
  begin
     id 12 
     name upperback
     direction 0.0134698 0.998451 -0.0539888   
     length 2.09758   
     axis 0 0 0   XYZ
    dof rx ry rz
    limits (-20.0 45.0)
           (-30.0 30.0)
           (-30.0 30.0)
  end
  begin
     id 13 
     name thorax
     direction 0.0241905 0.99948 -0.0213333   
     length 2.10428   
     axis 0 0 0   XYZ
    dof rx ry rz
    limits (-20.0 45.0)
           (-30.0 30.0)
           (-30.0 30.0)
  end
  begin
     id 14 
     name lowerneck
     direction -0.00866847 0.995978 0.0891737   
     length 1.3959   
     axis 0 0 0   XYZ
    dof rx ry rz
    limits (-20.0 45.0)
           (-30.0 30.0)
           (-30.0 30.0)
  end
  begin
     id 15 
     name upperneck
     direction 0.0680679 0.992203 0.104404   
     length 1.39452   
     axis 0 0 0   XYZ
    dof rx ry rz
    limits (-20.0 45.0)
           (-30.0 30.0)
           (-30.0 30.0)
  end
  begin
     id 16
     name head
     direction 0.0242216 0.999358 0.0264054  
     length 1.40433  
     axis 0 0 0   XYZ
    dof rx ry rz
    limits (-20.0 45.0)
           (-30.0 30.0)
           (-30.0 30.0)
  end
  begin
     id 17 
     name lclavicle
     direction 0.929368 0.362991 -0.0671771  
     length 3.04887  
     axis 0 0 0   XYZ
    dof ry rz
    limits (-20.0 10.0)
           (0.0 20.0)
  end
  begin
     id 18 
     name lhumerus
     direction 1 -4.48967e-011 -7.13741e-028   
     length 4.77195   
     axis -180 -30 -90   XYZ
    dof rx ry rz
    limits (-60.0 90.0)
           (-90.0 90.0)
           (-90.0 90.0)
  end
  begin
     id 19
     name lradius
     direction 1 -4.48977e-011 3.60404e-027   
     length 2.98444   
     axis -180 -30 -90   XYZ
    dof rx
    limits (-10.0 170.0)
  end
  begin
     id 20
     name lwrist
     direction 1 -4.48997e-011 7.54877e-027   
     length 1.49222   
     axis -7.18178e-015 90 90   XYZ
    dof ry
    limits (-180.0 0.0)
 end
  begin
     id 21 
     name lhand
     direction 1 -4.489e-011 1.51105e-026   
     length 0.992285   
     axis -9.63605e-015 90 90   XYZ
    dof rx rz
    limits (-90.0 90.0)
           (-45.0 45.0)
  end
  begin
     id 22 
     name lfingers
     direction 1 -4.48998e-011 3.01948e-026   
     length 0.800006   
     axis -1.92718e-014 90 90   XYZ
    dof rx
    limits (0.0 90.0)
  end
  begin
     id 23
     name lthumb
     direction 0.707107 -6.34881e-011 0.707107   
     length 1.14865   
     axis -90 45 -3.53137e-014   XYZ
    dof rx rz
    limits (-45.0 45.0)
           (-45.0 45.0)
  end
  begin
     id 24 
     name rclavicle
     direction -0.945672 0.324529 0.0196374   
     length 3.4236  
     axis 0 0 0   XYZ 
    dof ry rz
    limits (-10.0 20.0)
           (-20.0 0.0)
  end
  begin
     id 25 
     name rhumerus
     direction -1 -4.4896e-011 1.02757e-029  
     length 4.62052   
     axis -180 30 90   XYZ
    dof rx ry rz
    limits (-90.0 60.0)
           (-90.0 90.0)
           (-90.0 90.0)
  end
  begin
     id 26 
     name rradius
     direction -1 -4.48982e-011 3.85962e-027   
     length 2.95332   
     axis -180 30 90   XYZ
    dof rx
    limits (-10.0 170.0)
  end
  begin
     id 27 
     name rwrist
     direction -1 -4.48961e-011 7.55118e-027   
     length 1.47666   
     axis -7.18178e-015 -90 -90   XYZ
    dof ry
    limits (-180.0 0.0)
  end
  begin
     id 28
     name rhand
     direction -1 -4.48984e-011 1.50994e-026   
     length 0.990956   
     axis -9.63605e-015 -90 -90   XYZ
    dof rx rz
    limits (-90.0 90.0)
           (-45.0 45.0)
  end
  begin
     id 29
     name rfingers
     direction -1 -4.4892e-011 3.02158e-026   
     length 0.798934   
     axis -1.92718e-014 -90 -90   XYZ
    dof rx
    limits (0.0 90.0)
  end
  begin
     id 30
     name rthumb
     direction -0.707107 -6.34916e-011 0.707107   
     length 1.14711   
     axis -90 -45 3.53137e-014   XYZ
    dof rx rz
    limits (-45.0 45.0)
           (-45.0 45.0)
  end
:hierarchy
  begin
    root lhipjoint rhipjoint lowerback
    lhipjoint lfemur
    lfemur ltibia
    ltibia lfoot
    lfoot ltoes
    rhipjoint rfemur
    rfemur rtibia
    rtibia rfoot
    rfoot rtoes
    lowerback upperback
    upperback thorax
    thorax lowerneck lclavicle rclavicle
    lowerneck upperneck
    upperneck head
    lclavicle lhumerus
    lhumerus lradius
    lradius lwrist
    lwrist lhand lthumb
    lhand lfingers
    rclavicle rhumerus
    rhumerus rradius
    rradius rwrist
    rwrist rhand rthumb
    rhand rfingers
  end

#!OML:ASF H:\ManfredObstacles\Project 1\Capture day 1\Session 1\Male.ASF
:FULLY-SPECIFIED
:DEGREES
145
root 0.744848 15.967 46.2239 -169.554 -1.72735 -178.95
lowerback -6.76084 -1.68945 -2.17063
upperback 0.963522 -2.08745 0.290958
thorax 4.88263 -1.0983 1.29201
lowerneck 2.57727 -1.99058 -4.53869
upperneck -9.14167 -1.75117 9.65816
head -2.98381 -0.93935 3.72316
rclavicle -1.19271e-014 9.14409e-015
rhumerus -41.1736 -27.3184 -70.8563
rradius 25.1498
rwrist 35.9748
rhand 0.395097 -4.08529
rfingers 7.12502
rthumb 25.9688 -32.3311
lclavicle -1.19271e-014 9.14409e-015
lhumerus -31.8623 10.5199 82.8392
lradius 25.7432
lwrist -21.9829
lhand -7.90171 7.79174
lfingers 7.12502
lthumb 18.0034 36.9785
rfemur -19.8669 -3.49932 24.4605
rtibia 28.9818
rfoot -27.7764 13.4479
rtoes 9.68085
lfemur -36.046 -3.3773 -17.3537
ltibia 60.9546
lfoot -1.05692 1.96763
ltoes 11.766
146
root 0.764805 15.9448 46.1011 -169.526 -1.68446 -179.216
lowerback -6.55427 -1.66142 -2.47045
upperback 0.948425 -2.02956 0.2632
thorax 4.75766 -1.07641 1.4438
lowerneck 2.68686 -1.95569 -4.60829
upperneck -9.01633 -1.7388 9.60253
head -2.96592 -0.935945 3.71721
rclavicle 2.13694e-015 3.18055e-015
rhumerus -40.7698 -27.0437 -71.1431
rradius 25.3774
rwrist 35.8348
rhand 0.482936 -3.79316
rfingers 7.12502
rthumb 26.0529 -32.0266
lclavicle 2.13694e-015 3.18055e-015
lhumerus -32.4682 9.41356 83.3594
lradius 25.7843
lwrist -23.2239
lhand -9.63051 8.52341
lfingers 7.12502
lthumb 16.3394 37.8551
rfemur -19.5004 -3.71386 24.2478
rtibia 29.1669
rfoot -28.3211 13.7528
rtoes 10.1061
lfemur -37.2654 -3.83989 -17.5962
ltibia 59.0588
lfoot -2.22296 2.14951
ltoes 8.71991
147
root 0.784456 15.9214 45.9711 -169.595 -1.59237 -179.532
lowerback -6.32579 -1.49852 -2.67483
upperback 1.07814 -1.79107 0.016606
thorax 4.7513 -0.962278 1.33228
lowerneck 2.44606 -2.08058 -4.44969
upperneck -8.78564 -1.88858 9.75435
head -2.84596 -1.0081 3.73488
rclavicle 1.10325e-014 1.11319e-014
rhumerus -40.2739 -27.0497 -71.8025
rradius 25.6796
rwrist 35.4935
rhand 0.542221 -3.55113
rfingers 7.12502
rthumb 26.1096 -31.7762
lclavicle 1.10325e-014 1.11319e-014
lhumerus -32.5743 8.64106 83.2588
lradius 25.9252
lwrist -22.7662
lhand -9.24268 8.53287
lfingers 7.12502
lthumb 16.7128 37.8334
rfemur -18.9108 -3.6503 23.9536
rtibia 29.2272
rfoot -28.8681 13.5892
rtoes 9.54512
lfemur -38.0712 -4.29494 -17.8489
ltibia 56.5081
lfoot -3.29269 2.06805
ltoes 9.03174
148
root 0.797867 15.9202 45.8271 -169.659 -1.34178 -179.664
lowerback -6.20987 -1.32612 -2.71729
upperback 1.20996 -1.55472 -0.111011
thorax 4.81006 -0.847004 1.24952
lowerneck 2.25705 -2.12194 -4.4741
upperneck -8.61063 -1.93861 9.8988
head -2.75637 -1.02805 3.77946
rclavicle 1.78906e-015 -2.38542e-015
rhumerus -39.5898 -26.2192 -72.8567
rradius 26.1811
rwrist 34.4334
rhand 0.558741 -3.84235
rfingers 7.12502
rthumb 26.1254 -32.0651
lclavicle 1.78906e-015 -2.38542e-015
lhumerus -32.6984 8.10434 83.2649
lradius 25.9765
lwrist -22.6666
lhand -9.15449 8.75079
lfingers 7.12502
lthumb 16.7977 38.0442
rfemur -18.1828 -3.58093 23.8301
rtibia 29.1119
rfoot -29.4211 13.4593
rtoes 8.03296
lfemur -38.5414 -4.382 -17.9405
ltibia 53.3603
lfoot -4.13881 1.73244
ltoes 10.0717
149
root 0.811734 15.92 45.6835 -169.714 -1.29294 -179.63
lowerback -5.99962 -1.28404 -2.60331
upperback 1.26347 -1.51284 -0.1111
thorax 4.74167 -0.822748 1.19376
lowerneck 2.23991 -2.07237 -4.54488
upperneck -8.59993 -1.88859 9.80855
head -2.75448 -0.999698 3.76214
rclavicle 5.46658e-015 -3.97569e-016
rhumerus -38.8762 -24.8608 -74.0042
rradius 26.6976
rwrist 33.1788
rhand 0.52211 -3.97656
rfingers 7.12502
rthumb 26.0904 -32.2045
lclavicle 5.46658e-015 -3.97569e-016
lhumerus -32.9978 8.14431 83.0722
lradius 25.9506
lwrist -22.8361
lhand -9.18477 8.65866
lfingers 7.12502
lthumb 16.7686 37.9545
rfemur -17.3785 -3.67378 23.9093
rtibia 28.8175
rfoot -30.0077 13.3792
rtoes 6.3988
lfemur -38.9021 -4.57416 -17.7786
ltibia 49.7785
lfoot -4.44533 1.55442
ltoes 12.1354
